<?xml version="1.0" encoding="UTF-8"?>
<!-- Layered source SVG for realistic dog (serves as source file fallback). Contains named groups to simulate layers. -->
<svg xmlns="http://www.w3.org/2000/svg" width="2048" height="2048" viewBox="0 0 64 64" shape-rendering="crispEdges">
  <g id="background" />
  <g id="ears">
    <rect x="8" y="6" width="6" height="10" fill="#7B4A2A" />
    <rect x="50" y="6" width="6" height="10" fill="#7B4A2A" />
  </g>
  <g id="head">
    <rect x="12" y="12" width="40" height="32" fill="#D9C6A7" />
    <rect x="12" y="28" width="40" height="8" fill="#B07A3A" opacity="0.9" />
    <rect x="14" y="14" width="36" height="4" fill="#B07A3A" opacity="0.6" />
  </g>
  <g id="features">
    <rect x="22" y="22" width="4" height="4" fill="#000000" />
    <rect x="38" y="22" width="4" height="4" fill="#000000" />
    <rect x="23" y="23" width="2" height="2" fill="#FFFFFF" />
    <rect x="39" y="23" width="2" height="2" fill="#FFFFFF" />
    <rect x="30" y="30" width="4" height="3" fill="#3B2A20" />
    <rect x="28" y="34" width="8" height="2" fill="#3B2A20" />
  </g>
  <g id="collar">
    <rect x="16" y="40" width="32" height="4" fill="#B07A3A" />
    <rect x="30" y="42" width="4" height="4" fill="#3B2A20" />
  </g>
  <g id="highlights">
    <rect x="18" y="16" width="6" height="2" fill="#FFFFFF" opacity="0.18" />
    <rect x="40" y="16" width="6" height="2" fill="#FFFFFF" opacity="0.18" />
  </g>
</svg>