<svg xmlns="http://www.w3.org/2000/svg" style="display:none"><!-- sprite with symbols; id conventions: warrior-default --><symbol id="warrior-default" viewBox="0 0 16 16" preserveAspectRatio="xMidYMid meet"><g id="base"><rect x="3" y="4" width="1" height="3" fill="#556B2F"/><rect x="3" y="7" width="1" height="2" fill="#556B2F"/><rect x="6" y="1" width="4" height="1" fill="#2F4F4F"/><rect x="5" y="2" width="6" height="1" fill="#2F4F4F"/><rect x="5" y="3" width="2" height="1" fill="#F2D2B6"/><rect x="9" y="3" width="2" height="1" fill="#F2D2B6"/><rect x="4" y="4" width="8" height="1" fill="#2F4F4F"/><rect x="4" y="5" width="8" height="1" fill="#2F4F4F"/><rect x="7" y="5" width="2" height="1" fill="#FFD700"/><rect x="5" y="6" width="6" height="3" fill="#2F4F4F"/><rect x="6" y="9" width="4" height="2" fill="#3B2F2F"/></g><g id="shading"><rect x="8" y="2" width="1" height="1" fill="#1F2F2F"/><rect x="6" y="5" width="1" height="1" fill="#1F2F2F"/><rect x="9" y="6" width="1" height="1" fill="#1F2F2F"/></g><g id="outline"><rect x="5" y="1" width="1" height="1" fill="#000000"/><rect x="10" y="1" width="1" height="1" fill="#000000"/><rect x="4" y="2" width="1" height="1" fill="#000000"/><rect x="11" y="2" width="1" height="1" fill="#000000"/><rect x="4" y="3" width="1" height="1" fill="#000000"/><rect x="11" y="3" width="1" height="1" fill="#000000"/><rect x="3" y="4" width="1" height="1" fill="#000000"/><rect x="12" y="4" width="1" height="1" fill="#000000"/><rect x="3" y="5" width="1" height="1" fill="#000000"/><rect x="12" y="5" width="1" height="1" fill="#000000"/><rect x="4" y="6" width="1" height="1" fill="#000000"/><rect x="11" y="6" width="1" height="1" fill="#000000"/><rect x="5" y="8" width="1" height="1" fill="#000000"/><rect x="10" y="8" width="1" height="1" fill="#000000"/><rect x="6" y="11" width="1" height="1" fill="#000000"/><rect x="9" y="11" width="1" height="1" fill="#000000"/></g><g id="equipment"><rect x="12" y="5" width="1" height="5" fill="#C0C0C0"/><rect x="12" y="5" width="1" height="1" fill="#FFD700"/></g></symbol></svg>