<svg xmlns="http://www.w3.org/2000/svg" width="768" height="260" viewBox="0 0 768 260">
  <rect width="100%" height="100%" fill="#f7f7fb" />
  <g transform="translate(24,24)">
    <rect x="0" y="0" rx="10" ry="10" width="720" height="212" fill="#fff" stroke="#e6e9ef"/>
    <g transform="translate(24,36)">
      <circle cx="72" cy="72" r="72" fill="#dfe8ff"/>
      <text x="72" y="156" font-family="Arial" font-size="12" fill="#6b7280" text-anchor="middle">Avatar</text>
    </g>
    <g transform="translate(180,32)">
      <text x="0" y="24" font-family="Arial" font-size="24" fill="#0f1724">Aria Starfire</text>
      <text x="0" y="54" font-family="Arial" font-size="14" fill="#6b7280">Wanderer · Level 12</text>
      <text x="0" y="86" font-family="Arial" font-size="16" fill="#0f1724">A curious explorer with a quick wit.</text>
      <g transform="translate(0,118)">
        <rect x="0" y="0" rx="6" ry="6" width="72" height="28" fill="#f1f5ff" stroke="#e6e9ef"/>
        <text x="36" y="18" font-family="Arial" font-size="12" fill="#6b7280" text-anchor="middle">Level 12</text>
        <rect x="92" y="0" rx="6" ry="6" width="72" height="28" fill="#f1f5ff" stroke="#e6e9ef"/>
        <text x="128" y="18" font-family="Arial" font-size="12" fill="#6b7280" text-anchor="middle">HP 120</text>
        <rect x="184" y="0" rx="6" ry="6" width="72" height="28" fill="#f1f5ff" stroke="#e6e9ef"/>
        <text x="220" y="18" font-family="Arial" font-size="12" fill="#6b7280" text-anchor="middle">XP 340</text>
      </g>
      <g transform="translate(0,162)">
        <rect x="0" y="0" rx="6" ry="6" width="120" height="40" fill="#5b6bff"/>
        <text x="60" y="26" font-family="Arial" font-size="16" fill="#fff" text-anchor="middle">View</text>
        <rect x="136" y="0" rx="6" ry="6" width="40" height="40" fill="#fff" stroke="#e6e9ef"/>
        <text x="156" y="26" font-family="Arial" font-size="18" fill="#6b7280" text-anchor="middle">★</text>
      </g>
    </g>
  </g>
</svg>