<?xml version="1.0" encoding="UTF-8"?>
<svg xmlns="http://www.w3.org/2000/svg" width="128" height="128" viewBox="0 0 16 16" shape-rendering="crispEdges" aria-labelledby="title desc">
  <metadata>Author: KĀDI Artist Agent; License: CC0 1.0 Universal</metadata>
  <title id="title">Warrior - Attack</title>
  <desc id="desc">16x16 pixel-art warrior (attack pose). Scaled to 128px container. CC0 license.</desc>
  <!-- Palette same as idle -->
  <!-- Torso twisted, sword raised -->
  <rect x="0" y="0" width="16" height="16" fill="none"/>
  <!-- Hair -->
  <rect x="5" y="1" width="6" height="1" fill="#2B2B2B"/>
  <rect x="4" y="2" width="8" height="1" fill="#2B2B2B"/>
  <!-- Head -->
  <rect x="5" y="3" width="6" height="2" fill="#F1C27D"/>
  <rect x="6" y="4" width="1" height="1" fill="#000"/>
  <rect x="9" y="4" width="1" height="1" fill="#000"/>
  <!-- Neck -->
  <rect x="7" y="5" width="2" height="1" fill="#F1C27D"/>
  <!-- Armor torso twisted right -->
  <rect x="5" y="6" width="6" height="3" fill="#6B8AA2"/>
  <rect x="11" y="7" width="1" height="1" fill="#6B8AA2"/>
  <!-- Belt -->
  <rect x="5" y="9" width="6" height="1" fill="#8B3E2F"/>
  <!-- Legs staggered -->
  <rect x="6" y="10" width="2" height="3" fill="#4A4A4A"/>
  <rect x="9" y="10" width="2" height="3" fill="#4A4A4A"/>
  <!-- Boots outline -->
  <rect x="6" y="13" width="2" height="1" fill="#000"/>
  <rect x="9" y="13" width="2" height="1" fill="#000"/>
  <!-- Left arm forward (sword striking) -->
  <rect x="2" y="6" width="2" height="1" fill="#6B8AA2"/>
  <rect x="1" y="7" width="1" height="2" fill="#6B8AA2"/>
  <rect x="0" y="8" width="1" height="1" fill="#704214"/>
  <!-- Sword blade across -->
  <rect x="1" y="9" width="10" height="1" fill="#CFCFCF"/>
  <rect x="11" y="9" width="1" height="1" fill="#000"/>
  <!-- Shoulder/shadow -->
  <rect x="4" y="6" width="1" height="3" fill="#000"/>
</svg>