<?xml version="1.0" encoding="UTF-8"?>
<!-- Inline-friendly animated pixel cat (8x8 grid). Idle blink animation (SMIL). -->
<svg xmlns="http://www.w3.org/2000/svg" width="64" height="64" viewBox="0 0 8 8" role="img" aria-labelledby="title desc" shape-rendering="crispEdges" focusable="false">
  <title id="title">Pixel Cat — Animated Blink</title>
  <desc id="desc">A pixel-art cat with a subtle idle blink. Palette: outline #2B2B2B, fur #8B8B8B, eyes #FFD34D.</desc>

  <!-- Outline -->
  <g fill="#2B2B2B" aria-hidden="true">
    <rect x="1" y="0" width="1" height="1"/>
    <rect x="2" y="0" width="1" height="1"/>
    <rect x="4" y="0" width="1" height="1"/>
    <rect x="5" y="0" width="1" height="1"/>

    <rect x="0" y="1" width="1" height="1"/>
    <rect x="6" y="1" width="1" height="1"/>

    <rect x="0" y="2" width="1" height="1"/>
    <rect x="7" y="2" width="1" height="1"/>

    <rect x="0" y="3" width="1" height="1"/>
    <rect x="7" y="3" width="1" height="1"/>

    <rect x="0" y="4" width="1" height="1"/>
    <rect x="7" y="4" width="1" height="1"/>

    <rect x="0" y="5" width="1" height="1"/>
    <rect x="7" y="5" width="1" height="1"/>

    <rect x="1" y="6" width="1" height="1"/>
    <rect x="6" y="6" width="1" height="1"/>

    <rect x="2" y="7" width="1" height="1"/>
    <rect x="3" y="7" width="1" height="1"/>
    <rect x="4" y="7" width="1" height="1"/>
    <rect x="5" y="7" width="1" height="1"/>
  </g>

  <!-- Fur -->
  <g fill="#8B8B8B" aria-hidden="true">
    <rect x="1" y="1" width="1" height="1"/>
    <rect x="2" y="1" width="1" height="1"/>
    <rect x="4" y="1" width="1" height="1"/>
    <rect x="5" y="1" width="1" height="1"/>

    <rect x="1" y="2" width="1" height="1"/>
    <rect x="2" y="2" width="1" height="1"/>
    <rect x="3" y="2" width="1" height="1"/>
    <rect x="4" y="2" width="1" height="1"/>
    <rect x="5" y="2" width="1" height="1"/>
    <rect x="6" y="2" width="1" height="1"/>

    <rect x="1" y="3" width="1" height="1"/>
    <rect x="2" y="3" width="1" height="1"/>
    <rect x="3" y="3" width="1" height="1"/>
    <rect x="4" y="3" width="1" height="1"/>
    <rect x="5" y="3" width="1" height="1"/>
    <rect x="6" y="3" width="1" height="1"/>

    <rect x="1" y="4" width="1" height="1"/>
    <rect x="2" y="4" width="1" height="1"/>
    <rect x="3" y="4" width="1" height="1"/>
    <rect x="4" y="4" width="1" height="1"/>
    <rect x="5" y="4" width="1" height="1"/>
    <rect x="6" y="4" width="1" height="1"/>

    <rect x="1" y="5" width="1" height="1"/>
    <rect x="2" y="5" width="1" height="1"/>
    <rect x="3" y="5" width="1" height="1"/>
    <rect x="4" y="5" width="1" height="1"/>
    <rect x="5" y="5" width="1" height="1"/>
    <rect x="6" y="5" width="1" height="1"/>

    <rect x="2" y="6" width="1" height="1"/>
    <rect x="3" y="6" width="1" height="1"/>
    <rect x="4" y="6" width="1" height="1"/>
    <rect x="5" y="6" width="1" height="1"/>
  </g>

  <!-- Eyes group (animated) -->
  <g id="eyes" fill="#FFD34D">
    <rect x="3" y="4" width="1" height="1"/>
    <rect x="4" y="4" width="1" height="1"/>
    <!-- Blink animation: briefly hide eyes -->
    <animate attributeName="opacity" values="1;0;0;1" keyTimes="0;0.02;0.08;1" dur="3s" repeatCount="indefinite" />
  </g>

  <!-- Simple eyelid (appears during blink) -->
  <g fill="#2B2B2B" opacity="0" id="eyelid">
    <rect x="3" y="4" width="1" height="1"/>
    <rect x="4" y="4" width="1" height="1"/>
    <animate attributeName="opacity" values="0;1;1;0" keyTimes="0;0.02;0.08;1" dur="3s" repeatCount="indefinite" />
  </g>

</svg>
