<?xml version="1.0" encoding="UTF-8"?>
<svg xmlns="http://www.w3.org/2000/svg" width="120" height="120" viewBox="0 0 120 120" fill="none">
  <circle cx="60" cy="60" r="56" fill="#FFE0B2" />
  <g transform="translate(20,20)">
    <ellipse cx="40" cy="40" rx="28" ry="24" fill="#6B4F3B" />
    <circle cx="30" cy="34" r="6" fill="#fff" />
    <circle cx="50" cy="34" r="6" fill="#fff" />
    <circle cx="30" cy="34" r="2" fill="#000" />
    <circle cx="50" cy="34" r="2" fill="#000" />
    <path d="M26 50 q14 10 28 0" stroke="#4E342E" stroke-width="3" fill="none" stroke-linecap="round" />
  </g>

  <g id="pixel-monkey" transform="translate(6,6) scale(2)" shape-rendering="crispEdges">
    <g id="body">
      <rect x="9" y="4" width="6" height="1" fill="#8B5A2B"/>
      <rect x="8" y="5" width="8" height="1" fill="#8B5A2B"/>
      <rect x="6" y="6" width="12" height="1" fill="#8B5A2B"/>
      <rect x="5" y="7" width="14" height="3" fill="#8B5A2B"/>
      <rect x="8" y="7" width="8" height="1" fill="#F0D8B0"/>
      <rect x="7" y="8" width="10" height="2" fill="#F0D8B0"/>
      <rect x="8" y="10" width="8" height="1" fill="#F0D8B0"/>
      <rect x="9" y="11" width="6" height="1" fill="#F0D8B0"/>
      <rect x="9" y="12" width="6" height="1" fill="#5A331F"/>
      <rect x="5" y="8" width="1" height="2" fill="#8B5A2B"/>
      <rect x="18" y="8" width="1" height="2" fill="#8B5A2B"/>
      <rect x="5" y="11" width="1" height="1" fill="#8B5A2B"/>
      <rect x="18" y="11" width="1" height="1" fill="#8B5A2B"/>
      <rect x="7" y="13" width="10" height="2" fill="#8B5A2B"/>
      <rect x="6" y="15" width="12" height="3" fill="#8B5A2B"/>
    </g>
    <g id="eyes">
      <rect x="9" y="9" width="2" height="1" fill="#fff"/>
      <rect x="9" y="9" width="1" height="1" fill="#000"/>
      <rect x="13" y="9" width="2" height="1" fill="#fff"/>
      <rect x="14" y="9" width="1" height="1" fill="#000"/>
    </g>
    <g id="accessories">
      <rect x="10" y="3" width="4" height="1" fill="#E63946"/>
      <rect x="9" y="4" width="6" height="1" fill="#E63946"/>
    </g>
  </g>
</svg>