<?xml version="1.0" encoding="UTF-8"?><svg xmlns="http://www.w3.org/2000/svg" viewBox="0 0 24 24" shape-rendering="crispEdges"><g id="body"><rect x="9" y="4" width="6" height="1" fill="#8B5A2B"/><rect x="8" y="5" width="8" height="1" fill="#8B5A2B"/><rect x="6" y="6" width="12" height="1" fill="#8B5A2B"/><rect x="5" y="7" width="14" height="3" fill="#8B5A2B"/><rect x="8" y="7" width="8" height="1" fill="#F0D8B0"/><rect x="7" y="8" width="10" height="2" fill="#F0D8B0"/><rect x="8" y="10" width="8" height="1" fill="#F0D8B0"/><rect x="9" y="11" width="6" height="1" fill="#F0D8B0"/><rect x="9" y="12" width="6" height="1" fill="#5A331F"/><rect x="5" y="8" width="1" height="2" fill="#8B5A2B"/><rect x="18" y="8" width="1" height="2" fill="#8B5A2B"/><rect x="5" y="11" width="1" height="1" fill="#8B5A2B"/><rect x="18" y="11" width="1" height="1" fill="#8B5A2B"/><rect x="7" y="13" width="10" height="2" fill="#8B5A2B"/><rect x="6" y="15" width="12" height="3" fill="#8B5A2B"/></g><g id="eyes"><rect x="9" y="9" width="2" height="1" fill="#fff"/><rect x="9" y="9" width="1" height="1" fill="#000"/><rect x="13" y="9" width="2" height="1" fill="#fff"/><rect x="14" y="9" width="1" height="1" fill="#000"/></g><g id="accessories"><rect x="10" y="3" width="4" height="1" fill="#E63946"/><rect x="9" y="4" width="6" height="1" fill="#E63946"/></g></svg>