<?xml version="1.0" encoding="UTF-8"?>
<svg xmlns="http://www.w3.org/2000/svg" width="300" height="420" viewBox="0 0 48 64" role="img" aria-labelledby="title-desc-full" shape-rendering="crispEdges">
  <title id="title-desc-full">Pixel-art warrior (full card)</title>
  <desc id="desc-full">A 48x64 pixel-art warrior intended for full card display. Rendered as integer-aligned rects, limited palette, helmet, armor, cloak, shield, and sword. No filters used to preserve crisp edges.</desc>

  <!-- Palette: bg:#a6d8f5 outline:#000000 skin:#f1c27d armor:#c0c0c0 cloak:#8b0000 sword:#e6e6e6 handle:#6b4a2a shield:#996633 accent:#ffd24d -->
  <!-- Background -->
  <rect x="0" y="0" width="48" height="64" fill="#a6d8f5" />

  <!-- Ground / base -->
  <rect x="0" y="60" width="48" height="4" fill="#6b8e23" />

  <!-- Helmet outline -->
  <rect x="16" y="4" width="16" height="2" fill="#000000" />
  <rect x="16" y="10" width="16" height="2" fill="#000000" />
  <rect x="16" y="6" width="2" height="4" fill="#000000" />
  <rect x="30" y="6" width="2" height="4" fill="#000000" />

  <!-- Helmet interior (skin) -->
  <rect x="18" y="6" width="12" height="4" fill="#f1c27d" />

  <!-- Visor accent -->
  <rect x="22" y="8" width="4" height="1" fill="#000000" />

  <!-- Body outline -->
  <rect x="14" y="12" width="20" height="20" fill="#000000" />
  <!-- Armor interior -->
  <rect x="15" y="13" width="18" height="18" fill="#c0c0c0" />

  <!-- Armor accent (breastplate) -->
  <rect x="22" y="18" width="4" height="6" fill="#ffd24d" />

  <!-- Cloak lower -->
  <rect x="15" y="31" width="18" height="8" fill="#8b0000" />

  <!-- Left arm & shield -->
  <rect x="8" y="16" width="6" height="3" fill="#000000" />
  <rect x="8" y="19" width="6" height="8" fill="#996633" />
  <rect x="8" y="27" width="6" height="1" fill="#000000" />

  <!-- Right arm & sword -->
  <rect x="34" y="16" width="6" height="3" fill="#000000" />
  <rect x="37" y="19" width="1" height="14" fill="#e6e6e6" />
  <rect x="36" y="33" width="3" height="1" fill="#6b4a2a" />

  <!-- Legs / Boots -->
  <rect x="18" y="39" width="4" height="6" fill="#000000" />
  <rect x="26" y="39" width="4" height="6" fill="#000000" />
  <rect x="19" y="40" width="3" height="5" fill="#6b4a2a" />
  <rect x="27" y="40" width="3" height="5" fill="#6b4a2a" />

</svg>
