<?xml version="1.0" encoding="UTF-8"?>
<!-- Backup (artist) of warrior-character.svg
     Contains the original layered pixel-art rectangles and metadata for conflict resolution.
-->
<svg xmlns="http://www.w3.org/2000/svg" viewBox="0 0 32 32" width="128" height="128" preserveAspectRatio="xMidYMid meet">
  <g id="artist-backup" shape-rendering="crispEdges" image-rendering="pixelated">
    <!-- Artist backup copy: exact duplicate of src file to help with merges -->
    <rect x="12" y="2" width="8" height="1" fill="#4B2E1E" />
    <rect x="11" y="3" width="10" height="1" fill="#4B2E1E" />
    <rect x="10" y="4" width="12" height="1" fill="#4B2E1E" />
    <rect x="9" y="5" width="14" height="1" fill="#000000" />
    <rect x="11" y="6" width="3" height="3" fill="#F1C27D" />
    <rect x="18" y="6" width="3" height="3" fill="#F1C27D" />
    <rect x="14" y="7" width="4" height="2" fill="#F1C27D" />
    <rect x="13" y="7" width="1" height="1" fill="#000000" />
    <rect x="16" y="7" width="1" height="1" fill="#000000" />
    <rect x="14" y="9" width="4" height="1" fill="#8FB5C7" />
    <rect x="10" y="10" width="12" height="8" fill="#8FB5C7" />
    <rect x="10" y="15" width="12" height="1" fill="#6B4A2A" />
    <rect x="8" y="10" width="2" height="8" fill="#B33A3A" />
    <rect x="7" y="11" width="1" height="6" fill="#B33A3A" />
    <rect x="9" y="11" width="1" height="5" fill="#8FB5C7" />
    <rect x="5" y="12" width="4" height="6" fill="#8B5A2B" />
    <rect x="6" y="14" width="2" height="2" fill="#000000" />
    <rect x="21" y="11" width="1" height="5" fill="#8FB5C7" />
    <rect x="22" y="13" width="1" height="4" fill="#6B4A2A" />
    <rect x="23" y="11" width="1" height="7" fill="#D9D9D9" />
    <rect x="12" y="18" width="2" height="5" fill="#000000" />
    <rect x="18" y="18" width="2" height="5" fill="#000000" />
    <rect x="12" y="23" width="2" height="1" fill="#6B4A2A" />
    <rect x="18" y="23" width="2" height="1" fill="#6B4A2A" />
    <rect x="13" y="11" width="1" height="1" fill="#D9D9D9" />
    <rect x="18" y="11" width="1" height="1" fill="#D9D9D9" />
    <rect x="14" y="12" width="1" height="1" fill="#000000" />
    <rect x="17" y="12" width="1" height="1" fill="#000000" />
  </g>
</svg>
