<svg xmlns="http://www.w3.org/2000/svg" width="120" height="120" viewBox="0 0 120 120" shape-rendering="crispEdges">
  <rect x="20" y="0" width="80" height="5" fill="#000"/>
  <rect x="10" y="5" width="100" height="5" fill="#000"/>
  <rect x="14" y="10" width="92" height="5" fill="#000"/>
  <rect x="36" y="10" width="24" height="30" fill="#FFF"/>
  <rect x="46" y="18" width="4" height="4" fill="#000"/>
  <rect x="56" y="18" width="4" height="4" fill="#000"/>
  <rect x="30" y="40" width="60" height="30" fill="#000"/>
  <rect x="34" y="70" width="52" height="30" fill="#000"/>
  <rect x="36" y="88" width="48" height="4" fill="#000"/>
  <rect x="0" y="40" width="20" height="40" fill="#000"/>
  <rect x="6" y="46" width="8" height="28" fill="#FFF"/>
  <rect x="100" y="30" width="10" height="50" fill="#000"/>
  <rect x="96" y="26" width="16" height="4" fill="#000"/>
  <rect x="30" y="52" width="20" height="10" fill="#000"/>
  <rect x="70" y="52" width="20" height="10" fill="#000"/>
</svg>