<svg xmlns="http://www.w3.org/2000/svg" width="48" height="48" viewBox="0 0 48 48" shape-rendering="crispEdges">
  <!-- Monochrome / outline variant using stroke for crisp pixel outlines -->
  <rect x="8" y="0" width="32" height="4" fill="#000"/>
  <rect x="4" y="4" width="40" height="4" fill="#000"/>
  <rect x="6" y="8" width="36" height="4" fill="#000"/>
  <rect x="12" y="8" width="8" height="8" fill="#FFF"/>
  <rect x="28" y="8" width="8" height="8" fill="#FFF"/>
  <rect x="20" y="12" width="8" height="4" fill="#000"/>
  <rect x="14" y="10" width="2" height="2" fill="#000"/>
  <rect x="32" y="10" width="2" height="2" fill="#000"/>
  <rect x="10" y="16" width="28" height="8" fill="#000"/>
  <rect x="12" y="24" width="24" height="8" fill="#000"/>
  <rect x="14" y="28" width="20" height="2" fill="#000"/>
  <rect x="0" y="16" width="8" height="12" fill="#000"/>
  <rect x="2" y="18" width="4" height="8" fill="#FFF"/>
  <rect x="40" y="12" width="4" height="16" fill="#000"/>
  <rect x="38" y="10" width="8" height="2" fill="#000"/>
  <rect x="10" y="20" width="6" height="4" fill="#000"/>
  <rect x="32" y="20" width="6" height="4" fill="#000"/>
</svg>